<svg xmlns="http://www.w3.org/2000/svg">
<symbol viewBox="0 0 24 24" fill="none" id="arrow">
    <path d="M7 10L12 15L17 10" stroke="#000000" stroke-width="1.5" stroke-linecap="round" stroke-linejoin="round"/>
<symbol/>

<symbol viewBox="0 0 1024 1024" id="home">
    <path d="M981.4 502.3c-9.1 0-18.3-2.9-26-8.9L539 171.7c-15.3-11.8-36.7-11.8-52 0L70.7 493.4c-18.6 14.4-45.4 10.9-59.7-7.7-14.4-18.6-11-45.4 7.7-59.7L435 104.3c46-35.5 110.2-35.5 156.1 0L1007.5 426c18.6 14.4 22 41.1 7.7 59.7-8.5 10.9-21.1 16.6-33.8 16.6z" fill="#5F6379" />
    <path d="M810.4 981.3H215.7c-70.8 0-128.4-57.6-128.4-128.4V534.2c0-23.5 19.1-42.6 42.6-42.6s42.6 19.1 42.6 42.6v318.7c0 23.8 19.4 43.2 43.2 43.2h594.8c23.8 0 43.2-19.4 43.2-43.2V534.2c0-23.5 19.1-42.6 42.6-42.6s42.6 19.1 42.6 42.6v318.7c-0.1 70.8-57.7 128.4-128.5 128.4z" fill="#3688FF" />
<symbol/>

<symbol viewBox="0 0 64 64" id="tree">
<path fill="#231F20" d="M47.231,20.893C47.727,19.35,48,17.707,48,16c0-8.836-7.163-16-16-16S16,7.164,16,16
	c0,1.707,0.273,3.35,0.769,4.893C10.505,23.062,6,28.998,6,36c0,8.836,7.163,16,16,16c2.125,0,4.146-0.43,6-1.184V63
	c0,0.553,0.447,1,1,1h6c0.553,0,1-0.447,1-1V50.816C37.854,51.57,39.875,52,42,52c8.837,0,16-7.164,16-16
	C58,28.998,53.495,23.062,47.231,20.893z M34,62h-4V49.842c0.7-0.407,1.371-0.859,2-1.363c0.629,0.504,1.3,0.956,2,1.363V62z M42,50
	c-2.913,0-5.613-0.895-7.853-2.418L40.73,41H45c0.553,0,1-0.447,1-1s-0.447-1-1-1h-4v-4c0-0.553-0.447-1-1-1s-1,0.447-1,1v4.898
	l-6,6.001V45V33.414l3.718-3.718c0.391-0.391,0.392-1.024,0.001-1.415s-1.038-0.376-1.429,0.015L32,31.586l-3.332-3.332
	c-0.391-0.391-0.934-0.301-1.324,0.09c-0.392,0.392-0.435,0.981-0.044,1.372l3.7,3.7V45v0.898l-6-5.997V35c0-0.553-0.447-1-1-1
	s-1,0.447-1,1v4h-4c-0.553,0-1,0.447-1,1s0.447,1,1,1h4.27l6.583,6.582C27.613,49.105,24.913,50,22,50c-7.732,0-14-6.268-14-14
	c0-6.871,4.952-12.573,11.48-13.762C18.541,20.358,18,18.244,18,16c0-7.732,6.268-14,14-14s14,6.268,14,14
	c0,2.244-0.541,4.358-1.48,6.238C51.048,23.427,56,29.129,56,36C56,43.732,49.732,50,42,50z"/>
<symbol/>

<symbol viewBox="0 0 32 32" id="arrow-left">
    <path d="M16 0c-8.837 0-16 7.163-16 16s7.163 16 16 16c8.837 0 16-7.163 16-16s-7.163-16-16-16zM16 30.032c-7.72 0-14-6.312-14-14.032s6.28-14 14-14 14 6.28 14 14-6.28 14.032-14 14.032zM23.010 14.989h-11.264l3.617-3.617c0.39-0.39 0.39-1.024 0-1.414s-1.024-0.39-1.414 0l-5.907 6.062 5.907 6.063c0.195 0.195 0.451 0.293 0.707 0.293s0.511-0.098 0.707-0.293c0.39-0.39 0.39-1.023 0-1.414l-3.68-3.68h11.327c0.552 0 1-0.448 1-1s-0.448-1-1-1z"></path>
<symbol/>

<symbol viewBox="0 0 24 24" id="instagram">
<path d="M2 6C2 3.79086 3.79086 2 6 2H18C20.2091 2 22 3.79086 22 6V18C22 20.2091 20.2091 22 18 22H6C3.79086 22 2 20.2091 2 18V6ZM6 4C4.89543 4 4 4.89543 4 6V18C4 19.1046 4.89543 20 6 20H18C19.1046 20 20 19.1046 20 18V6C20 4.89543 19.1046 4 18 4H6ZM12 9C10.3431 9 9 10.3431 9 12C9 13.6569 10.3431 15 12 15C13.6569 15 15 13.6569 15 12C15 10.3431 13.6569 9 12 9ZM7 12C7 9.23858 9.23858 7 12 7C14.7614 7 17 9.23858 17 12C17 14.7614 14.7614 17 12 17C9.23858 17 7 14.7614 7 12ZM17.5 8C18.3284 8 19 7.32843 19 6.5C19 5.67157 18.3284 5 17.5 5C16.6716 5 16 5.67157 16 6.5C16 7.32843 16.6716 8 17.5 8Z"/>
<symbol/>

<symbol viewBox="0 0 48 48" id="twitter">
<path d="M38.74,16.55v1c0,10.07-7.64,21.61-21.62,21.61A21.14,21.14,0,0,1,5.5,35.71a12.22,12.22,0,0,0,1.81.11,15.25,15.25,0,0,0,9.44-3.24,7.56,7.56,0,0,1-7.1-5.29,6.9,6.9,0,0,0,1.44.15,7.53,7.53,0,0,0,2-.27A7.57,7.57,0,0,1,7,19.72v-.1a7.42,7.42,0,0,0,3.44.94A7.54,7.54,0,0,1,8.05,10.5a21.58,21.58,0,0,0,15.68,7.94,6.38,6.38,0,0,1-.21-1.74,7.55,7.55,0,0,1,13.17-5.31,15.59,15.59,0,0,0,4.83-1.85,7.65,7.65,0,0,1-3.39,4.27,15.87,15.87,0,0,0,4.37-1.26,15.56,15.56,0,0,1-3.76,4Z"/>
<symbol/>

<symbol viewBox="0 0 24 24" id="telegram">
<path d="M12 4C10.4178 4 8.87103 4.46919 7.55544 5.34824C6.23985 6.22729 5.21447 7.47672 4.60897 8.93853C4.00347 10.4003 3.84504 12.0089 4.15372 13.5607C4.4624 15.1126 5.22433 16.538 6.34315 17.6569C7.46197 18.7757 8.88743 19.5376 10.4393 19.8463C11.9911 20.155 13.5997 19.9965 15.0615 19.391C16.5233 18.7855 17.7727 17.7602 18.6518 16.4446C19.5308 15.129 20 13.5823 20 12C20 9.87827 19.1571 7.84344 17.6569 6.34315C16.1566 4.84285 14.1217 4 12 4ZM15.93 9.48L14.62 15.67C14.52 16.11 14.26 16.21 13.89 16.01L11.89 14.53L10.89 15.46C10.8429 15.5215 10.7824 15.5715 10.7131 15.6062C10.6438 15.6408 10.5675 15.6592 10.49 15.66L10.63 13.66L14.33 10.31C14.5 10.17 14.33 10.09 14.09 10.23L9.55 13.08L7.55 12.46C7.12 12.33 7.11 12.03 7.64 11.83L15.35 8.83C15.73 8.72 16.05 8.94 15.93 9.48Z"/>
<symbol/>

<symbol viewBox="0 0 24 24" id="facebook">
<path d="M2 6C2 3.79086 3.79086 2 6 2H18C20.2091 2 22 3.79086 22 6V18C22 20.2091 20.2091 22 18 22H6C3.79086 22 2 20.2091 2 18V6ZM6 4C4.89543 4 4 4.89543 4 6V18C4 19.1046 4.89543 20 6 20H12V13H11C10.4477 13 10 12.5523 10 12C10 11.4477 10.4477 11 11 11H12V9.5C12 7.567 13.567 6 15.5 6H16.1C16.6523 6 17.1 6.44772 17.1 7C17.1 7.55228 16.6523 8 16.1 8H15.5C14.6716 8 14 8.67157 14 9.5V11H16.1C16.6523 11 17.1 11.4477 17.1 12C17.1 12.5523 16.6523 13 16.1 13H14V20H18C19.1046 20 20 19.1046 20 18V6C20 4.89543 19.1046 4 18 4H6Z"/>


<symbol viewBox="0 0 128 128" id="gear">
<path d="M64,39A25,25,0,1,0,89,64,25,25,0,0,0,64,39Zm0,44A19,19,0,1,1,83,64,19,19,0,0,1,64,83Z"/>
<path d="M121,48h-8.93a1,1,0,0,1-.94-.68,49.9,49.9,0,0,0-2-4.85,1,1,0,0,1,.18-1.15L115.62,35a7,7,0,0,0,0-9.9L102.89,12.38a7,7,0,0,0-9.9,0l-6.31,6.31a1,1,0,0,1-1.15.18,49.76,49.76,0,0,0-4.85-2,1,1,0,0,1-.68-.94V7a7,7,0,0,0-7-7H55a7,7,0,0,0-7,7v8.93a1,1,0,0,1-.68.94,49.9,49.9,0,0,0-4.85,2,1,1,0,0,1-1.15-.18L35,12.38a7,7,0,0,0-9.9,0L12.38,25.11a7,7,0,0,0,0,9.9l6.31,6.31a1,1,0,0,1,.18,1.15,49.76,49.76,0,0,0-2,4.85,1,1,0,0,1-.94.68H7a7,7,0,0,0-7,7V73a7,7,0,0,0,7,7h8.93a1,1,0,0,1,.94.68,49.9,49.9,0,0,0,2,4.85,1,1,0,0,1-.18,1.15L12.38,93a7,7,0,0,0,0,9.9l12.73,12.73a7,7,0,0,0,9.9,0l6.31-6.31a1,1,0,0,1,1.15-.18,49.76,49.76,0,0,0,4.85,2,1,1,0,0,1,.68.94V121a7,7,0,0,0,7,7H73a7,7,0,0,0,7-7v-8.93a1,1,0,0,1,.68-.94,49.9,49.9,0,0,0,4.85-2,1,1,0,0,1,1.15.18L93,115.62a7,7,0,0,0,9.9,0l12.73-12.73a7,7,0,0,0,0-9.9l-6.31-6.31a1,1,0,0,1-.18-1.15,49.76,49.76,0,0,0,2-4.85,1,1,0,0,1,.94-.68H121a7,7,0,0,0,7-7V55A7,7,0,0,0,121,48Zm1,25a1,1,0,0,1-1,1h-8.93a7,7,0,0,0-6.6,4.69,43.9,43.9,0,0,1-1.76,4.26,7,7,0,0,0,1.35,8l6.31,6.31a1,1,0,0,1,0,1.41L98.65,111.38a1,1,0,0,1-1.41,0l-6.31-6.31a7,7,0,0,0-8-1.35,43.88,43.88,0,0,1-4.27,1.76,7,7,0,0,0-4.68,6.6V121a1,1,0,0,1-1,1H55a1,1,0,0,1-1-1v-8.93a7,7,0,0,0-4.69-6.6,43.9,43.9,0,0,1-4.26-1.76,7,7,0,0,0-8,1.35l-6.31,6.31a1,1,0,0,1-1.41,0L16.62,98.65a1,1,0,0,1,0-1.41l6.31-6.31a7,7,0,0,0,1.35-8,43.88,43.88,0,0,1-1.76-4.27A7,7,0,0,0,15.93,74H7a1,1,0,0,1-1-1V55a1,1,0,0,1,1-1h8.93a7,7,0,0,0,6.6-4.69,43.9,43.9,0,0,1,1.76-4.26,7,7,0,0,0-1.35-8l-6.31-6.31a1,1,0,0,1,0-1.41L29.35,16.62a1,1,0,0,1,1.41,0l6.31,6.31a7,7,0,0,0,8,1.35,43.88,43.88,0,0,1,4.27-1.76A7,7,0,0,0,54,15.93V7a1,1,0,0,1,1-1H73a1,1,0,0,1,1,1v8.93a7,7,0,0,0,4.69,6.6,43.9,43.9,0,0,1,4.26,1.76,7,7,0,0,0,8-1.35l6.31-6.31a1,1,0,0,1,1.41,0l12.73,12.73a1,1,0,0,1,0,1.41l-6.31,6.31a7,7,0,0,0-1.35,8,43.88,43.88,0,0,1,1.76,4.27,7,7,0,0,0,6.6,4.68H121a1,1,0,0,1,1,1Z"/>
<symbol/>
</svg>